<?xml version="1.0" standalone="no"?>
<!DOCTYPE svg PUBLIC "-//W3C//DTD SVG 20010904//EN"
 "http://www.w3.org/TR/2001/REC-SVG-20010904/DTD/svg10.dtd">
<svg version="1.0" xmlns="http://www.w3.org/2000/svg"
 width="2160.000000pt" height="2160.000000pt" viewBox="0 0 2160.000000 2160.000000"
 preserveAspectRatio="xMidYMid meet">

<g transform="translate(0.000000,2160.000000) scale(0.100000,-0.100000)"
fill="#000000" stroke="none">
<path d="M11577 21154 c-163 -50 -209 -269 -77 -366 14 -10 84 -33 156 -52 72
-18 141 -39 153 -45 51 -28 42 -103 -15 -127 -18 -8 -60 -14 -92 -14 -72 0
-121 28 -136 78 l-9 32 -73 0 c-83 0 -83 -1 -63 -75 15 -56 91 -127 155 -146
67 -19 228 -17 275 4 90 40 139 111 139 202 0 71 -19 116 -61 147 -43 31 -70
41 -198 73 -160 40 -183 58 -156 122 16 38 68 57 136 51 55 -6 85 -27 106 -75
13 -33 14 -33 84 -33 l72 0 -6 39 c-12 92 -71 157 -170 186 -63 19 -157 18
-220 -1z"/>
<path d="M9120 21138 c0 -7 43 -167 97 -355 l97 -343 71 0 72 0 21 98 c11 53
35 171 53 262 l33 165 41 -205 c23 -113 48 -231 54 -262 l12 -58 75 0 c68 0
74 2 79 23 3 12 48 171 99 352 l93 330 -75 3 c-41 2 -77 1 -79 -2 -3 -2 -27
-103 -54 -223 -27 -120 -52 -229 -55 -243 -5 -21 -69 258 -100 433 l-7 37 -81
0 -82 0 -43 -222 c-23 -123 -46 -234 -51 -248 -8 -25 -8 -25 -9 -2 -1 13 -24
124 -53 248 l-51 224 -79 0 c-56 0 -78 -4 -78 -12z"/>
<path d="M10620 20795 l0 -355 70 0 70 0 0 355 0 355 -70 0 -70 0 0 -355z"/>
<path d="M10890 20795 l0 -355 70 0 70 0 0 355 0 355 -70 0 -70 0 0 -355z"/>
<path d="M13780 21085 l0 -65 70 0 70 0 0 65 0 65 -70 0 -70 0 0 -65z"/>
<path d="M10175 20956 c-94 -43 -145 -133 -145 -256 0 -137 63 -233 174 -265
122 -36 251 10 302 107 27 52 21 58 -55 58 -56 0 -72 -4 -83 -18 -43 -61 -151
-52 -176 15 -25 69 -40 63 158 63 l180 0 0 55 c0 70 -31 153 -75 198 -65 66
-189 86 -280 43z m154 -110 c25 -13 51 -52 51 -76 0 -6 -43 -10 -100 -10 -55
0 -100 3 -100 6 0 3 7 21 16 39 24 52 79 69 133 41z"/>
<path d="M12305 20965 c-22 -8 -50 -26 -62 -40 l-23 -26 0 36 0 36 -67 -3 -68
-3 0 -360 0 -360 68 -3 67 -3 0 127 0 127 23 -20 c76 -70 196 -65 273 12 52
52 74 118 74 221 0 137 -55 230 -154 259 -60 18 -80 18 -131 0z m83 -131 c35
-24 52 -68 52 -133 0 -101 -39 -155 -110 -153 -68 2 -110 60 -110 149 0 54 29
126 57 142 27 15 85 13 111 -5z"/>
<path d="M12813 20970 c-56 -13 -97 -44 -120 -90 -13 -24 -23 -55 -23 -67 0
-22 4 -23 65 -23 61 0 65 2 79 29 17 33 34 41 82 41 48 0 74 -16 74 -44 0 -35
-15 -43 -118 -60 -52 -9 -106 -23 -122 -31 -100 -52 -106 -218 -11 -278 56
-34 145 -30 210 10 l49 31 6 -24 c6 -23 11 -24 81 -24 74 0 91 9 66 36 -5 5
-11 95 -13 199 -3 166 -6 194 -23 222 -38 64 -173 99 -282 73z m157 -325 c0
-68 -43 -115 -105 -115 -36 0 -56 11 -66 36 -19 51 12 82 106 103 64 14 65 14
65 -24z"/>
<path d="M13385 20971 c-124 -31 -195 -152 -182 -310 10 -123 70 -207 163
-230 150 -38 284 32 314 165 l8 34 -74 0 c-70 0 -74 -1 -80 -25 -8 -33 -50
-65 -84 -65 -61 0 -100 63 -100 162 0 101 52 164 123 151 28 -6 67 -45 67 -69
0 -11 17 -14 69 -14 39 0 72 3 74 8 3 4 -1 29 -8 57 -28 108 -156 168 -290
136z"/>
<path d="M14277 20966 c-22 -8 -50 -24 -63 -37 l-24 -22 0 26 c0 27 -1 27 -70
27 l-70 0 0 -260 0 -260 70 0 70 0 0 163 c0 134 3 168 18 197 22 46 64 66 111
54 55 -14 61 -35 61 -236 l0 -178 76 0 76 0 -4 208 c-3 186 -5 211 -24 246
-35 69 -144 103 -227 72z"/>
<path d="M14766 20965 c-67 -24 -123 -93 -141 -174 -12 -57 -7 -158 10 -211
17 -51 74 -112 121 -130 46 -18 136 -12 174 11 19 12 39 27 43 33 5 6 6 -16 4
-48 -5 -78 -34 -106 -108 -106 -40 0 -54 5 -73 25 -21 22 -31 25 -95 25 -68 0
-71 -1 -71 -24 0 -33 39 -86 80 -107 28 -15 57 -19 152 -19 64 0 129 5 145 11
42 15 92 68 103 109 5 19 10 164 10 323 l0 287 -65 0 -65 0 0 -32 0 -31 -23
21 c-52 49 -128 63 -201 37z m176 -144 c32 -29 33 -31 33 -116 0 -85 -1 -87
-33 -116 -35 -31 -85 -39 -124 -18 -24 13 -58 84 -58 124 0 132 99 201 182
126z"/>
<path d="M13780 20705 l0 -265 70 0 70 0 0 265 0 265 -70 0 -70 0 0 -265z"/>
<path d="M15480 20955 c0 -3 36 -60 81 -126 l81 -121 -86 -129 c-47 -71 -86
-131 -86 -134 0 -3 38 -5 84 -5 l84 0 43 74 44 74 43 -74 44 -74 89 0 89 0
-89 134 -90 134 84 123 83 124 -75 3 c-42 2 -81 1 -88 -1 -6 -3 -26 -32 -44
-66 -18 -34 -35 -61 -39 -61 -4 0 -25 29 -45 65 l-38 65 -84 0 c-47 0 -85 -2
-85 -5z"/>
<path d="M8534 20085 c-236 -141 -294 -180 -304 -204 -12 -29 -7 -64 13 -89
10 -12 570 -352 580 -352 3 0 26 34 51 75 l45 74 -137 83 -137 83 1958 3
c1077 1 2836 1 3908 0 l1950 -3 -135 -80 c-75 -44 -136 -83 -136 -87 0 -7 75
-135 86 -147 7 -8 566 333 585 357 23 30 25 70 4 99 -14 21 -583 369 -589 361
-14 -17 -88 -150 -85 -152 2 -2 65 -40 139 -85 l135 -81 -3910 0 c-3258 0
-3906 2 -3890 13 11 8 71 44 133 81 61 37 112 72 112 77 0 9 -79 149 -84 149
0 0 -132 -79 -292 -175z"/>
<path d="M7970 19700 l0 -181 88 3 87 3 3 178 2 177 -90 0 -90 0 0 -180z"/>
<path d="M16960 19700 l0 -180 90 0 90 0 0 180 0 180 -90 0 -90 0 0 -180z"/>
<path d="M7970 18980 l0 -181 88 3 87 3 3 178 2 177 -90 0 -90 0 0 -180z"/>
<path d="M16960 18980 l0 -180 90 0 90 0 0 180 0 180 -90 0 -90 0 0 -180z"/>
<path d="M7970 18260 l0 -181 88 3 87 3 3 178 2 177 -90 0 -90 0 0 -180z"/>
<path d="M16960 18260 l0 -180 90 0 90 0 0 180 0 180 -90 0 -90 0 0 -180z"/>
<path d="M3850 9200 l0 -8570 5130 0 5130 0 0 50 0 50 -5080 0 -5080 0 0 8470
0 8470 2010 0 2010 0 0 -155 0 -156 88 3 87 3 3 153 3 152 4404 0 4405 0 0
-155 0 -155 90 0 90 0 0 155 0 155 2045 0 2045 0 0 50 0 50 -8690 0 -8690 0 0
-8570z"/>
<path d="M7970 16946 l0 -55 -52 -5 c-29 -3 -107 -10 -173 -15 -531 -46 -1088
-253 -1536 -571 -216 -154 -469 -392 -632 -595 -417 -518 -667 -1158 -703
-1800 -6 -103 -9 -115 -26 -115 -16 0 -18 -9 -18 -90 0 -81 2 -90 18 -90 17 0
20 -12 26 -117 41 -731 360 -1458 872 -1993 549 -573 1260 -913 2054 -981 166
-14 509 -6 670 16 729 100 1367 422 1875 946 498 514 799 1152 880 1864 19
163 21 499 5 660 -63 632 -301 1211 -703 1710 -99 122 -310 335 -433 437 -498
411 -1118 668 -1734 719 -69 6 -144 13 -167 15 l-43 5 0 55 0 54 -90 0 -90 0
0 -54z m-2 -274 l3 -33 87 3 87 3 3 33 c3 31 5 32 35 28 18 -3 77 -8 132 -11
452 -29 985 -213 1391 -480 302 -200 604 -492 811 -785 297 -421 480 -912 533
-1435 14 -139 14 -469 0 -600 -24 -219 -77 -467 -143 -660 -166 -486 -452
-923 -822 -1258 -460 -415 -987 -665 -1605 -758 -133 -20 -193 -24 -425 -24
-305 0 -461 18 -715 81 -1060 261 -1899 1076 -2186 2123 -56 205 -104 506
-104 653 l0 58 70 0 70 0 0 90 0 90 -70 0 -70 0 0 49 c0 158 52 474 112 686
110 385 293 739 545 1055 90 113 296 323 413 422 482 405 1078 648 1711 697
137 11 133 12 137 -27z"/>
<path d="M7970 16100 l0 -181 88 3 87 3 3 178 2 177 -90 0 -90 0 0 -180z"/>
<path d="M7970 15380 l0 -181 88 3 87 3 3 178 2 177 -90 0 -90 0 0 -180z"/>
<path d="M8263 14028 l-213 -213 -210 210 -210 210 -65 -65 -65 -65 210 -210
210 -210 -202 -202 -203 -203 60 -60 c33 -33 64 -60 70 -60 5 0 99 89 207 197
l198 198 195 -195 195 -195 65 65 65 65 -195 195 -195 195 215 215 215 215
-62 62 c-34 35 -65 63 -68 63 -3 0 -101 -96 -217 -212z"/>
<path d="M5550 13700 l0 -90 180 0 180 0 0 90 0 90 -180 0 -180 0 0 -90z"/>
<path d="M6270 13700 l0 -90 65 0 65 0 0 90 0 90 -65 0 -65 0 0 -90z"/>
<path d="M16960 16946 c0 -52 -1 -54 -31 -60 -17 -3 -55 -6 -83 -6 -81 0 -288
-28 -446 -60 -518 -106 -1004 -343 -1415 -691 -115 -97 -338 -327 -434 -447
-362 -456 -585 -988 -668 -1592 -20 -148 -24 -616 -6 -745 7 -49 8 -81 2 -83
-5 -2 -9 -80 -9 -183 l0 -179 45 0 44 0 21 -72 c246 -858 832 -1569 1625
-1973 424 -216 864 -328 1350 -342 740 -21 1422 195 2010 637 405 304 716 679
940 1135 99 200 141 306 198 495 l35 115 43 5 44 5 3 174 c2 116 -1 177 -8
181 -8 5 -7 35 2 101 19 141 16 564 -5 719 -102 752 -416 1386 -939 1895 -203
199 -358 318 -593 460 -411 248 -917 410 -1370 440 -49 3 -109 8 -132 11 l-43
5 0 55 0 54 -90 0 -90 0 0 -54z m0 -271 l0 -35 90 0 90 0 0 34 0 35 73 -5
c768 -52 1434 -350 1962 -879 453 -453 743 -1018 846 -1650 25 -157 40 -544
27 -715 -86 -1138 -828 -2141 -1898 -2563 -532 -210 -1134 -261 -1710 -146
-1069 214 -1965 1035 -2274 2084 -100 339 -128 574 -116 970 9 279 24 396 79
620 231 938 915 1718 1817 2073 280 110 632 189 924 205 30 2 63 4 73 5 13 2
17 -6 17 -33z"/>
<path d="M16960 16100 l0 -180 90 0 90 0 0 180 0 180 -90 0 -90 0 0 -180z"/>
<path d="M16960 15380 l0 -180 90 0 90 0 0 180 0 180 -90 0 -90 0 0 -180z"/>
<path d="M17260 14025 l-215 -215 -212 212 -213 213 -60 -60 c-33 -33 -60 -64
-60 -70 0 -5 93 -103 207 -217 l208 -208 -200 -200 -200 -200 63 -62 62 -63
200 200 200 200 193 -193 c106 -105 197 -192 202 -192 6 0 37 27 70 60 l60 60
-198 198 -197 197 215 215 215 215 -63 63 -62 62 -215 -215z"/>
<path d="M1950 13700 l0 -90 180 0 180 0 0 90 0 90 -180 0 -180 0 0 -90z"/>
<path d="M2670 13700 l0 -90 180 0 180 0 0 90 0 90 -180 0 -180 0 0 -90z"/>
<path d="M3390 13700 l0 -90 180 0 180 0 0 90 0 90 -180 0 -180 0 0 -90z"/>
<path d="M4110 13700 l0 -90 180 0 180 0 0 90 0 90 -180 0 -180 0 0 -90z"/>
<path d="M1837 13508 c-23 -21 -362 -578 -355 -583 13 -10 145 -85 150 -85 3
0 41 60 84 132 l79 133 3 -1953 c1 -1073 1 -2830 0 -3902 l-3 -1951 -80 135
-80 134 -35 -21 c-19 -11 -54 -33 -77 -47 l-43 -26 175 -290 c175 -292 192
-314 245 -314 11 0 33 12 49 27 24 24 329 521 347 566 4 10 -16 28 -70 60
l-74 46 -78 -130 c-42 -71 -80 -132 -85 -135 -5 -3 -9 1711 -9 3900 0 2149 2
3906 4 3906 2 0 39 -59 81 -130 43 -72 81 -133 86 -136 10 -6 149 74 149 87 0
4 -77 136 -171 292 -117 195 -179 288 -196 296 -37 17 -70 13 -96 -11z"/>
<path d="M520 12565 l0 -74 68 -20 c37 -11 120 -34 186 -52 65 -18 112 -35
105 -38 -8 -3 -90 -28 -184 -56 l-170 -51 -3 -77 c-2 -48 1 -77 7 -77 6 0 127
41 268 91 142 50 268 91 281 91 36 1 62 -30 62 -74 l0 -38 50 0 51 0 -3 93 -3
92 -50 27 c-39 20 -642 238 -661 238 -2 0 -4 -34 -4 -75z"/>
<path d="M13870 12360 l0 -180 90 0 90 0 0 180 0 180 -90 0 -90 0 0 -180z"/>
<path d="M20050 12360 l0 -181 88 3 87 3 3 178 2 177 -90 0 -90 0 0 -180z"/>
<path d="M13870 11640 l0 -180 90 0 90 0 0 180 0 180 -90 0 -90 0 0 -180z"/>
<path d="M20050 11640 l0 -181 88 3 87 3 3 178 2 177 -90 0 -90 0 0 -180z"/>
<path d="M528 11774 c-5 -4 -8 -36 -8 -71 l0 -63 30 0 31 0 -32 -40 c-61 -76
-48 -193 31 -264 54 -49 130 -70 234 -64 154 9 236 85 236 218 0 52 -28 124
-52 133 -7 3 11 6 40 6 46 1 57 -3 83 -28 24 -25 29 -37 29 -81 0 -42 -5 -55
-25 -74 -22 -21 -25 -31 -25 -95 0 -80 5 -84 66 -55 64 30 74 62 74 227 l0
146 -32 37 c-57 65 -70 68 -388 72 -157 2 -288 0 -292 -4z m314 -144 c11 0 35
-15 54 -34 89 -89 -9 -203 -151 -177 -79 15 -105 41 -105 109 0 46 33 88 77
97 15 4 33 8 38 10 6 2 23 2 39 0 16 -3 37 -5 48 -5z"/>
<path d="M615 11165 c-67 -24 -105 -87 -105 -175 0 -41 29 -108 55 -130 17
-14 16 -15 -11 -20 -28 -5 -29 -7 -32 -73 l-3 -67 266 0 265 0 0 70 0 70 -147
0 c-82 0 -166 5 -188 10 -79 18 -113 103 -60 155 24 25 26 25 210 25 l185 0 0
75 0 75 -197 0 c-144 -1 -209 -5 -238 -15z"/>
<path d="M13870 10920 l0 -180 90 0 90 0 0 180 0 180 -90 0 -90 0 0 -180z"/>
<path d="M20050 10920 l0 -181 88 3 87 3 3 178 2 177 -90 0 -90 0 0 -180z"/>
<path d="M330 10500 l0 -70 70 0 70 0 0 70 0 70 -70 0 -70 0 0 -70z"/>
<path d="M520 10500 l0 -70 265 0 265 0 0 70 0 70 -265 0 -265 0 0 -70z"/>
<path d="M13870 10200 l0 -180 90 0 90 0 0 180 0 180 -90 0 -90 0 0 -180z"/>
<path d="M20050 10200 l0 -181 88 3 87 3 3 178 2 177 -90 0 -90 0 0 -180z"/>
<path d="M648 10326 c-88 -32 -125 -84 -135 -191 -11 -122 37 -211 139 -255
42 -19 71 -23 145 -23 82 -1 98 2 150 29 43 22 65 41 88 78 27 45 30 57 30
130 -1 62 -6 90 -22 121 -32 62 -85 102 -155 119 l-28 6 0 -75 c0 -57 3 -75
14 -75 23 0 63 -38 70 -66 16 -64 -34 -111 -128 -121 -92 -9 -167 24 -182 81
-9 36 22 93 57 105 30 10 30 11 27 78 -3 76 -9 81 -70 59z"/>
<path d="M1011 9786 c-10 -11 -53 -15 -199 -18 -220 -4 -240 -10 -275 -86 -33
-71 -31 -210 3 -271 28 -49 65 -76 123 -86 l37 -7 0 71 c0 56 -3 71 -15 71
-29 0 -55 38 -55 81 0 53 15 79 45 79 32 0 40 -18 58 -123 18 -101 39 -143 87
-171 48 -29 139 -28 177 0 74 55 89 166 35 254 l-30 48 24 6 c23 6 24 10 24
86 0 61 -3 80 -14 80 -7 0 -19 -6 -25 -14z m-100 -176 c10 -6 26 -24 34 -40
31 -61 9 -120 -46 -120 -36 0 -56 21 -69 73 -5 23 -14 54 -19 70 -9 27 -9 27
36 27 24 0 53 -5 64 -10z"/>
<path d="M13870 9480 l0 -180 90 0 90 0 0 180 0 180 -90 0 -90 0 0 -180z"/>
<path d="M20050 9480 l0 -181 88 3 87 3 3 178 2 177 -90 0 -90 0 0 -180z"/>
<path d="M14380 9444 c-151 -91 -285 -176 -297 -190 -13 -14 -23 -38 -23 -54
0 -16 10 -40 23 -53 20 -23 576 -361 582 -355 12 13 85 140 85 147 0 5 -60 44
-132 87 l-133 79 1283 3 c705 1 1859 1 2564 0 l1283 -3 -133 -79 c-72 -43
-132 -83 -132 -88 0 -16 82 -149 90 -146 4 2 134 79 289 172 300 180 319 196
306 257 -4 16 -21 40 -38 53 -36 26 -552 336 -560 336 -3 0 -26 -34 -51 -75
l-45 -74 137 -83 137 -83 -1288 -3 c-709 -1 -1864 -1 -2568 0 l-1279 3 135 80
c74 43 135 83 135 88 0 13 -81 147 -89 147 -3 -1 -130 -75 -281 -166z"/>
<path d="M659 9226 c-141 -50 -194 -218 -102 -326 l25 -30 -32 0 -31 0 3 -67
3 -68 358 -3 357 -2 0 75 0 75 -122 1 c-68 0 -117 3 -110 6 25 10 52 81 52
138 0 96 -51 165 -149 200 -53 18 -201 19 -252 1z m180 -137 c69 -14 101 -48
101 -106 0 -37 -5 -50 -30 -73 -42 -40 -108 -50 -184 -29 -58 16 -86 49 -86
102 0 53 27 85 87 104 49 15 53 15 112 2z"/>
<path d="M785 8639 c-44 -11 -88 -48 -112 -94 -9 -16 -31 -88 -49 -159 -35
-135 -52 -166 -90 -166 -56 0 -84 39 -84 117 0 66 26 115 68 128 l32 9 0 73 0
73 -27 0 c-78 -1 -158 -72 -188 -167 -23 -74 -17 -201 13 -260 46 -89 142
-133 242 -112 95 20 121 58 170 253 37 149 62 180 124 156 34 -13 56 -64 56
-130 0 -76 -22 -118 -70 -137 l-40 -16 0 -74 0 -74 38 7 c128 23 196 122 197
289 0 100 -18 163 -61 213 -54 64 -137 90 -219 71z"/>
<path d="M17080 8460 c-114 -24 -182 -104 -182 -214 0 -65 10 -95 46 -134 32
-36 63 -49 197 -82 67 -17 133 -37 146 -45 31 -21 39 -59 19 -91 -23 -33 -58
-46 -134 -46 -75 0 -108 18 -131 73 l-16 39 -72 0 c-82 0 -81 1 -58 -77 11
-35 27 -62 55 -87 66 -59 100 -70 230 -70 109 -1 118 1 167 28 106 59 148 185
97 288 -29 57 -86 85 -271 129 -106 25 -136 46 -131 91 4 41 44 70 105 75 63
5 112 -19 136 -69 l19 -38 69 0 69 0 0 30 c0 44 -38 117 -74 145 -71 53 -187
75 -286 55z"/>
<path d="M14590 8443 c-1 -5 43 -164 97 -355 l98 -348 72 0 71 0 15 68 c9 37
32 151 53 254 21 103 39 186 40 185 2 -1 23 -103 49 -227 25 -124 49 -238 52
-253 6 -28 6 -28 80 -25 l75 3 99 350 c54 193 99 351 99 353 0 1 -35 2 -78 2
l-79 0 -51 -224 c-29 -124 -52 -232 -52 -240 0 -9 -4 -16 -8 -16 -4 0 -16 42
-26 93 -9 50 -31 159 -48 240 l-31 148 -81 -3 -81 -3 -45 -232 c-41 -210 -60
-282 -60 -225 0 11 -22 118 -50 237 -27 119 -50 218 -50 221 0 7 -160 4 -160
-3z"/>
<path d="M16090 8095 l0 -355 70 0 70 0 0 355 0 355 -70 0 -70 0 0 -355z"/>
<path d="M16367 8444 c-4 -4 -7 -164 -7 -356 l0 -348 75 0 75 0 -2 353 -3 352
-65 3 c-36 2 -69 0 -73 -4z"/>
<path d="M17560 8385 l0 -65 70 0 70 0 0 65 0 65 -70 0 -70 0 0 -65z"/>
<path d="M15678 8266 c-66 -18 -112 -57 -144 -123 -24 -48 -28 -69 -28 -142 0
-99 14 -149 57 -197 52 -60 100 -79 197 -79 75 0 91 3 132 28 52 30 98 89 98
124 0 22 -4 23 -66 23 -60 0 -68 -3 -94 -30 -61 -65 -180 -19 -180 70 0 19 8
20 176 20 l177 0 -5 73 c-7 106 -53 184 -131 220 -47 22 -135 29 -189 13z
m116 -120 c30 -12 67 -68 54 -82 -3 -2 -49 -3 -102 -2 l-96 3 18 35 c16 33 52
60 80 60 7 0 27 -6 46 -14z"/>
<path d="M18458 8267 c-58 -17 -90 -37 -123 -81 -71 -94 -74 -272 -6 -368 57
-81 192 -119 298 -84 67 22 143 102 143 150 0 13 -13 16 -66 16 -60 0 -68 -3
-94 -30 -23 -25 -36 -30 -75 -30 -40 0 -51 5 -76 31 -18 20 -29 42 -29 60 l0
29 175 0 175 0 0 48 c0 110 -54 207 -135 243 -56 25 -131 31 -187 16z m138
-140 c12 -12 25 -32 29 -44 6 -23 5 -23 -95 -23 -100 0 -101 0 -94 23 22 73
109 98 160 44z"/>
<path d="M17560 8000 l0 -260 70 0 70 0 0 260 0 260 -70 0 -70 0 0 -260z"/>
<path d="M17800 8205 l0 -54 122 -3 121 -3 -131 -150 -132 -150 0 -52 0 -53
230 0 230 0 0 55 0 55 -130 0 c-71 0 -130 3 -130 8 0 4 57 70 125 147 l125
139 0 58 0 58 -215 0 -215 0 0 -55z"/>
<path d="M19100 8255 c0 -3 36 -59 80 -125 44 -66 80 -122 80 -125 0 -3 -38
-63 -85 -133 l-85 -127 77 -3 c42 -2 82 -1 88 2 7 2 29 34 49 70 20 36 39 66
41 66 2 0 23 -31 45 -70 l41 -70 90 0 89 0 -80 120 c-45 67 -84 128 -87 136
-3 9 21 55 59 112 35 53 73 109 82 125 l18 27 -85 0 -85 0 -40 -71 -40 -72
-41 72 -42 71 -84 0 c-47 0 -85 -2 -85 -5z"/>
<path d="M7705 7875 c-622 -72 -1181 -307 -1665 -699 -109 -88 -309 -285 -414
-407 -359 -418 -608 -941 -706 -1483 -25 -136 -50 -351 -50 -429 0 -50 -3 -60
-20 -64 -18 -5 -20 -14 -20 -90 0 -76 2 -85 20 -90 17 -5 20 -14 20 -62 0 -77
25 -293 50 -428 152 -841 657 -1603 1377 -2080 421 -278 892 -448 1408 -508
157 -18 734 -23 745 -6 3 5 48 17 100 25 52 8 128 22 168 31 40 8 78 15 83 15
5 0 9 -18 9 -40 l0 -40 180 0 180 0 0 90 c0 79 -2 90 -17 90 -10 1 22 16 71
35 1003 393 1755 1295 1960 2351 75 390 77 833 5 1214 -129 674 -471 1288
-977 1753 -279 257 -613 468 -967 611 -60 25 -102 45 -92 46 16 0 17 9 15 88
l-3 87 -177 3 -178 2 0 -41 c0 -40 -1 -41 -27 -36 -257 45 -330 60 -337 68
-15 14 -611 9 -741 -6z m795 -194 c1355 -208 2385 -1276 2545 -2636 21 -174
20 -502 0 -680 -66 -574 -280 -1088 -643 -1545 -100 -125 -341 -367 -469 -468
-463 -367 -1000 -584 -1588 -642 -156 -16 -476 -13 -630 5 -834 98 -1564 518
-2072 1191 -339 449 -555 1033 -590 1597 l-6 107 71 0 72 0 0 90 0 90 -72 0
-71 0 6 110 c4 60 16 172 27 247 180 1231 1108 2225 2330 2497 98 21 200 37
380 60 19 2 157 3 305 1 211 -3 300 -8 405 -24z"/>
<path d="M8247 5032 l-217 -217 -213 213 -212 212 -63 -62 -62 -63 212 -212
213 -213 -203 -203 -202 -202 62 -63 63 -62 202 202 203 203 198 -198 197
-197 63 62 62 63 -197 197 -198 198 218 218 217 217 -63 63 -62 62 -218 -218z"/>
<path d="M5552 4703 l3 -88 178 -3 177 -2 0 90 0 90 -180 0 -181 0 3 -87z"/>
<path d="M6272 4703 l3 -88 63 -3 62 -3 0 91 0 90 -65 0 -66 0 3 -87z"/>
<path d="M9530 7800 l0 -90 180 0 181 0 -3 88 -3 87 -177 3 -178 2 0 -90z"/>
<path d="M10250 7800 l0 -90 180 0 181 0 -3 88 -3 87 -177 3 -178 2 0 -90z"/>
<path d="M10970 7800 l0 -90 180 0 181 0 -3 88 -3 87 -177 3 -178 2 0 -90z"/>
<path d="M11690 7800 l0 -90 180 0 181 0 -3 88 -3 87 -177 3 -178 2 0 -90z"/>
<path d="M12410 7800 l0 -90 65 0 65 0 0 90 0 90 -65 0 -65 0 0 -90z"/>
<path d="M340 7615 l0 -75 355 0 355 0 0 75 0 75 -355 0 -355 0 0 -75z"/>
<path d="M12503 7675 c-19 -14 -351 -552 -356 -578 -2 -10 141 -102 148 -96 1
2 39 65 84 139 l81 135 0 -2570 0 -2570 -81 135 c-45 74 -83 137 -84 139 -7 6
-150 -87 -148 -96 4 -18 325 -548 346 -570 25 -28 86 -31 115 -5 19 16 352
566 352 580 0 10 -143 91 -151 87 -3 -3 -42 -64 -85 -137 l-79 -133 -3 1289
c-1 708 -1 1864 0 2569 l3 1282 79 -133 c43 -73 82 -134 85 -137 8 -4 151 77
151 87 0 14 -333 564 -352 581 -25 21 -76 22 -105 2z"/>
<path d="M340 7340 l0 -70 355 0 355 0 0 70 0 70 -355 0 -355 0 0 -70z"/>
<path d="M13674 7206 c-3 -7 -4 -42 -2 -77 l3 -63 185 -52 185 -52 -90 -27
c-49 -15 -134 -40 -187 -56 l-98 -30 0 -74 c0 -57 3 -75 14 -75 7 0 129 41
270 90 141 50 264 90 274 90 36 0 62 -29 62 -71 l0 -39 50 0 50 0 0 90 0 89
-42 25 c-24 13 -167 68 -318 121 -151 52 -292 102 -313 110 -31 13 -38 13 -43
1z"/>
<path d="M661 7163 c-160 -57 -205 -279 -81 -404 54 -54 113 -74 215 -73 130
0 195 35 242 128 32 63 36 168 9 231 -27 64 -96 125 -141 125 -22 0 -22 -138
0 -147 22 -8 45 -56 45 -92 0 -40 -45 -89 -87 -97 l-33 -6 0 176 0 176 -62 -1
c-35 0 -83 -8 -107 -16z m69 -234 c0 -88 -2 -100 -16 -95 -9 3 -19 6 -23 6 -5
0 -20 12 -35 26 -38 38 -36 95 3 135 16 16 39 29 50 29 20 0 21 -5 21 -101z"/>
<path d="M340 6592 l0 -79 88 -21 c48 -11 153 -35 234 -53 82 -19 148 -36 148
-39 0 -3 -84 -22 -187 -43 -104 -22 -209 -43 -235 -49 l-48 -10 0 -81 0 -82
233 -44 c215 -41 287 -61 227 -61 -14 0 -121 -23 -239 -50 -118 -28 -216 -50
-218 -50 -7 0 -3 -160 5 -160 4 0 163 44 354 97 l348 98 0 72 0 72 -57 12
c-32 6 -150 30 -262 53 l-204 42 261 53 262 54 0 73 0 73 -67 20 c-38 11 -192
54 -343 97 -151 42 -281 79 -287 81 -10 4 -13 -15 -13 -75z"/>
<path d="M13832 6375 c-98 -30 -158 -102 -170 -200 -12 -111 31 -201 120 -251
49 -27 61 -29 158 -29 93 0 110 3 150 25 120 68 164 240 92 364 -22 38 -97 96
-123 96 -17 0 -19 -8 -19 -66 0 -59 3 -70 30 -101 60 -68 29 -151 -67 -178
l-23 -6 0 180 0 181 -52 -1 c-29 0 -72 -6 -96 -14z m48 -235 c0 -63 -4 -100
-10 -100 -21 0 -70 30 -80 49 -14 27 -12 82 4 103 13 17 63 48 79 48 4 0 7
-45 7 -100z"/>
<path d="M14078 5718 l-3 -132 -141 127 -142 127 -61 0 -61 0 0 -215 0 -215
60 0 59 0 3 120 3 120 147 -130 147 -130 55 0 56 0 0 230 0 230 -60 0 -59 0
-3 -132z"/>
<path d="M13482 5243 l3 -68 68 -3 67 -3 0 71 0 70 -70 0 -71 0 3 -67z"/>
<path d="M13670 5240 l0 -70 265 0 265 0 0 70 0 70 -265 0 -265 0 0 -70z"/>
<path d="M13965 5073 c-11 -2 -30 -6 -42 -8 -30 -7 -81 -51 -99 -87 -8 -16
-31 -88 -49 -160 -35 -136 -53 -168 -91 -168 -55 0 -84 39 -84 115 0 78 27
118 93 139 15 5 17 16 15 73 l-3 68 -45 -2 c-61 -3 -117 -44 -155 -113 -28
-51 -30 -62 -30 -160 0 -89 4 -112 22 -147 78 -146 284 -162 360 -28 12 22 34
89 48 148 30 127 47 164 81 177 59 23 104 -35 104 -132 0 -73 -22 -116 -70
-136 l-40 -17 0 -72 c0 -81 1 -82 71 -61 56 16 113 69 139 130 35 77 35 230 1
306 -28 63 -90 119 -140 128 -20 3 -43 7 -51 9 -8 1 -24 1 -35 -2z"/>
<path d="M1952 4703 l3 -88 178 -3 177 -2 0 90 0 90 -180 0 -181 0 3 -87z"/>
<path d="M2672 4703 l3 -88 178 -3 177 -2 0 90 0 90 -180 0 -181 0 3 -87z"/>
<path d="M3392 4703 l3 -88 178 -3 177 -2 0 90 0 90 -180 0 -181 0 3 -87z"/>
<path d="M4112 4703 l3 -88 178 -3 177 -2 0 90 0 90 -180 0 -181 0 3 -87z"/>
<path d="M13490 4040 l0 -70 355 0 355 0 0 70 0 70 -355 0 -355 0 0 -70z"/>
<path d="M13490 3770 l0 -70 355 0 355 0 0 70 0 70 -355 0 -355 0 0 -70z"/>
<path d="M13831 3599 c-97 -28 -160 -108 -168 -213 -7 -88 15 -153 71 -204 57
-53 103 -67 211 -67 110 0 172 26 222 92 89 119 53 315 -69 379 -52 27 -58 21
-58 -55 0 -56 4 -72 18 -83 26 -18 42 -51 42 -88 0 -41 -56 -100 -94 -100
l-26 0 0 175 0 175 -57 -1 c-32 0 -73 -5 -92 -10z m49 -240 c0 -88 -2 -100
-16 -95 -9 3 -19 6 -23 6 -5 0 -20 12 -35 26 -45 45 -31 120 29 152 42 23 45
17 45 -89z"/>
<path d="M13490 3021 l0 -79 133 -31 c72 -17 178 -42 234 -54 56 -13 104 -25
107 -28 2 -2 -103 -26 -235 -53 l-239 -49 0 -82 0 -81 228 -44 c125 -23 233
-46 241 -50 8 -4 -4 -10 -30 -14 -24 -4 -130 -27 -235 -51 -105 -25 -194 -45
-198 -45 -3 0 -6 -36 -6 -80 0 -55 4 -80 12 -80 6 0 166 44 355 97 l343 98 0
72 0 71 -47 10 c-27 6 -144 30 -261 53 -118 24 -210 44 -205 46 11 3 505 103
509 103 2 0 4 33 4 74 0 62 -3 76 -17 80 -10 3 -164 46 -343 96 -179 50 -331
93 -337 95 -10 3 -13 -16 -13 -74z"/>
<path d="M9530 1610 l0 -90 180 0 180 0 0 90 0 90 -180 0 -180 0 0 -90z"/>
<path d="M10250 1610 l0 -90 180 0 180 0 0 90 0 90 -180 0 -180 0 0 -90z"/>
<path d="M10970 1610 l0 -90 180 0 180 0 0 90 0 90 -180 0 -180 0 0 -90z"/>
<path d="M11690 1610 l0 -90 180 0 180 0 0 90 0 90 -180 0 -180 0 0 -90z"/>
<path d="M12410 1610 l0 -90 65 0 65 0 0 90 0 90 -65 0 -65 0 0 -90z"/>
</g>
</svg>
